<svg width="64" height="64" viewBox="0 0 64 64" fill="none" xmlns="http://www.w3.org/2000/svg">
<path d="M31.9997 5.33398H31.9996C17.2721 5.33398 5.33301 17.273 5.33301 32.0006C5.33301 46.7282 17.2721 58.6673 31.9996 58.6673H31.9997C46.7273 58.6673 58.6663 46.7282 58.6663 32.0006C58.6663 17.273 46.7273 5.33398 31.9997 5.33398Z" fill="url(#paint0_linear_69_169)"/>
<path d="M31.9997 5.33398C28.6362 5.33398 25.4348 5.97561 22.4762 7.10221C22.261 7.3 21.9814 7.4518 21.7601 7.43294C21.73 7.43036 21.6995 7.41027 21.6689 7.39909C20.2106 8.00925 18.8272 8.75686 17.5153 9.60482C17.6858 9.88149 17.7364 10.1896 17.3851 10.3392C17.3262 10.3647 16.5843 10.4393 16.3252 10.4329C12.5949 13.1435 9.60243 16.7891 7.68978 21.0449C7.72029 21.0407 7.74692 21.0262 7.77832 21.0241C8.06863 21.0201 8.48649 21.1035 8.7653 21.1621C9.02261 21.215 9.23013 21.3875 9.4528 21.4043C10.0847 21.4523 10.2367 20.9609 10.7523 20.6855C11.2849 20.7609 11.6384 20.5954 12.1195 20.6491C12.4474 20.6854 12.6843 21.0357 12.9398 21.0553C13.1548 21.0772 13.3438 20.8542 13.5518 20.8861C13.7538 20.9171 14.1022 21.3579 14.1351 21.6048C14.1767 21.9122 13.909 22.1891 13.9971 22.5267C14.3191 22.8547 14.9042 22.9211 15.3643 23.11C15.6639 22.8631 15.4039 22.4049 15.3643 22.0475C15.3603 21.8902 15.3861 21.7498 15.3643 21.6048C15.3363 21.3587 15.2308 21.1332 15.2288 20.9225C15.2248 19.9496 16.0137 19.4942 16.6663 19.11C16.9488 18.9425 17.1712 18.6493 17.4163 18.5267C17.7625 18.3531 18.0203 18.3127 18.307 18.1517C18.8249 17.8607 19.2692 17.6272 19.6742 17.2975C19.8614 16.8564 19.6927 16.2648 19.708 15.8288C19.8954 15.714 20.0563 15.8782 20.2549 15.8626C20.5675 15.7977 20.5934 15.3565 20.7705 15.1803C20.8737 15.0794 21.1556 15.0071 21.2835 14.9069C21.595 14.6625 21.6964 14.2934 21.9684 14.1882C22.066 14.1487 22.2912 14.1594 22.445 14.1178C22.6475 14.0642 22.9356 13.8246 23.2653 13.7116C23.4803 13.6364 23.9723 13.622 24.0544 13.5397C24.1553 13.4365 24.0525 13.1472 24.0882 12.9928C24.2539 12.221 25.4166 12.0574 26.1038 11.7975C26.5855 11.615 27.0798 11.2808 27.609 11.3835C27.5054 11.7503 27.0124 11.6203 27.096 12.0658C27.2112 12.6839 28.0392 11.8886 28.2575 11.7975C28.6746 11.6217 29.3899 11.5143 29.9372 11.3158C30.4171 11.1399 31.2776 10.8725 30.8252 10.3236C30.448 10.3017 30.266 10.7663 29.9372 10.9069C29.7101 10.9432 29.7533 10.7168 29.5596 10.6986C29.3753 10.6767 29.2722 10.8685 29.083 10.8366C28.895 10.8055 28.6307 10.5097 28.6012 10.2897C28.526 9.71894 29.0836 9.48364 29.32 9.05794C29.1637 8.54165 28.4495 8.95272 28.0179 8.75065C28.0594 8.44328 28.3776 8.2313 28.7367 8.17253C29.031 8.12266 29.6916 8.14814 29.8669 8.30534C29.9681 8.39174 29.8724 8.60729 30.0387 8.75065C30.2129 8.90796 30.4272 8.89174 30.6533 8.85482C30.7349 8.46523 30.1467 8.56294 30.2106 8.30534C30.6725 8.00321 31.4238 8.2513 31.9893 8.16732C32.3148 8.11932 32.6565 7.88953 32.945 7.72721C33.2193 7.57089 33.5758 7.29966 33.8669 7.55534C33.9457 7.83458 33.6134 7.92697 33.458 8.06576C32.9348 8.53115 32.3959 9.0643 31.9893 9.60482C32.2388 9.84815 32.6921 9.72623 33.1143 9.77669C33.2793 9.79856 33.4866 9.84745 33.6611 9.87825C33.8649 9.91452 34.0822 9.90436 34.2419 9.94596C34.5291 10.0164 34.6059 10.3236 34.8903 10.3236C35.3581 10.3227 35.3636 9.81674 35.0986 9.50065C35.1824 9.17794 35.3135 9.01057 35.2002 8.78451C34.9895 8.36307 34.2165 8.7627 34.1768 8.23763C34.1514 7.89672 34.462 7.91195 34.5856 7.6569C34.5295 6.99818 35.1259 6.95045 35.0622 6.36003C35.0342 6.11307 34.8262 6.10966 34.6533 5.87826C34.5667 5.76441 34.5215 5.54645 34.4215 5.44857C33.6237 5.37734 32.8167 5.33398 31.9997 5.33398ZM18.2393 10.7142H18.2419C18.4011 10.7372 18.5933 10.9079 18.7861 10.9225C18.9687 10.9265 19.1191 10.8219 19.2314 10.8522C19.5173 10.9275 19.6379 11.3593 19.3695 11.571C19.1459 11.599 19.0588 11.4741 18.8903 11.5033C18.4259 11.5821 18.2478 12.4917 17.9007 12.4616C17.5734 12.4336 17.3963 11.6365 17.7288 11.3991C17.7507 11.1918 17.5776 11.1586 17.5882 10.9538C17.6864 10.8278 17.9672 10.6923 18.2393 10.7142ZM16.7002 10.821C16.7954 10.8236 16.8669 10.8471 16.9033 10.8887C16.8581 11.2531 16.5728 11.2292 16.2913 11.3991C15.8052 11.6925 15.5242 12.1395 15.3695 12.7663C15.3247 12.9489 14.8456 13.4318 14.6143 13.3835C14.0721 13.2691 14.7638 12.2697 14.8877 12.1178C15.0245 11.9495 15.2082 11.8018 15.3695 11.6074C15.5258 11.4192 15.6277 11.165 15.7783 11.0605C15.9434 10.9461 16.4146 10.81 16.7002 10.821ZM20.7471 12.0501C20.9207 12.0528 21.0769 12.0814 21.1481 12.1517C21.0365 12.6032 20.0637 12.484 19.708 12.321C19.7309 12.1507 19.9972 12.1038 20.221 12.0814C20.3783 12.0774 20.5737 12.0449 20.7471 12.0501ZM18.5335 12.8835C18.6487 12.8808 18.7663 12.9059 18.8877 12.9382C18.573 13.2014 18.2327 13.3505 17.6924 13.5215C17.4326 13.6034 16.9838 13.7053 16.9398 13.4147C16.8862 13.0591 17.3197 13.1418 17.557 13.11C17.8556 13.0686 18.1836 12.8947 18.5335 12.8835ZM52.4919 14.9095C52.4516 15.0063 52.422 15.1022 52.4268 15.196C52.4486 15.361 52.6286 15.5197 52.6689 15.7428C52.6908 15.861 52.6133 16.1167 52.6689 16.2246C52.8336 16.5439 53.2644 16.3142 53.5726 16.3314C53.2225 15.8493 52.8728 15.3663 52.4919 14.9095ZM54.2393 17.2611C54.1905 17.4966 54.0301 17.8039 53.9007 18.0007C53.6027 18.4539 53.1979 18.4751 52.7705 18.7168C52.4141 18.9188 52.2607 19.256 52.0518 19.6074C51.8254 19.987 51.6851 20.2163 51.7783 20.7663C51.4728 21.3723 51.0102 21.7436 50.3773 22.0319C50.19 22.1163 49.9345 22.1473 49.7627 22.2715C49.6259 22.3698 49.5482 22.6339 49.3538 22.8522C49.114 23.1191 48.8627 23.2317 48.7367 23.4355C48.6391 23.5929 48.6045 23.9064 48.4971 24.1178C48.3512 24.405 48.0403 24.5457 47.8486 24.8366C47.7614 24.9711 47.7031 25.2437 47.6064 25.4199C47.3899 25.8136 47.0198 26.0972 47.0596 26.4434C47.099 26.7779 47.4789 26.8366 47.5049 27.1283C47.5089 27.2931 47.396 27.3939 47.4033 27.5736C47.4073 27.8359 47.5857 28.0201 47.6064 28.222C47.6572 28.7296 47.4338 28.9322 47.3382 29.2793C47.293 29.445 47.3122 29.6316 47.2679 29.7611C47.1842 30.0152 46.8296 30.2445 46.8226 30.5449C46.8199 30.7584 47.0416 30.9301 47.0596 31.2298C47.0636 31.4364 46.9581 31.657 46.9945 31.847C47.0671 32.2191 47.7313 32.6517 48.0205 32.9408C48.4073 33.3276 48.9137 33.627 49.0804 34.0345C49.2209 34.3806 49.2195 34.831 49.4893 35.0918C49.6887 35.2844 50.0203 35.4045 50.2757 35.6048C50.514 35.7918 50.7736 35.9533 51.0283 36.1517C51.4445 36.4772 52.0737 37.1262 52.7367 37.0762C53.0829 37.0508 53.4377 36.7683 53.8304 36.6986C54.2344 36.6262 54.7587 36.5889 55.1663 36.6309C55.4785 36.6619 55.8001 36.8489 56.1247 36.834C56.4673 36.8121 56.8603 36.5588 57.2497 36.3887C57.563 36.2523 57.9474 36.1012 58.3695 35.9902C58.563 34.6895 58.6663 33.3569 58.6663 32.0006C58.6663 26.5404 57.0336 21.4794 54.2393 17.2611ZM10.1351 26.222C9.56713 26.2531 9.19494 26.2789 8.87207 26.4251C8.13223 26.7618 8.27524 27.7615 7.53613 27.998C7.28049 28.0796 6.92953 28.0837 6.64811 28.1361C6.40522 28.1805 6.10934 28.3132 5.85905 28.3079C5.789 28.307 5.6911 28.2548 5.60384 28.2272C5.53797 28.696 5.48373 29.17 5.44238 29.6465C6.14554 29.7812 6.5084 30.7132 7.12988 31.0215C7.30015 31.1059 7.52266 31.1103 7.74186 31.1595C7.91882 31.199 8.05315 31.2739 8.22363 31.3314C8.58525 31.4542 9.02816 31.4394 9.31738 31.5684C9.75325 31.7618 10.0728 32.5809 10.4476 32.8001C10.4695 33.0211 10.4046 33.3177 10.4814 33.4824C10.6584 33.7225 10.9085 33.6696 11.2002 33.8262C11.5492 34.0144 11.6559 34.5005 11.9867 34.6491C12.1009 34.6998 12.387 34.6932 12.5674 34.748C13.0206 34.8852 13.1685 35.4095 13.557 35.2949C13.8118 35.2197 13.7917 34.9577 13.833 34.7142C14.0014 34.5316 14.1851 34.2427 14.4476 34.2376C14.8724 34.2158 14.9102 34.6766 15.0648 35.0892C15.1518 35.3223 15.3802 35.5255 15.4398 35.7715C15.5458 36.1963 15.4929 37.468 15.4033 37.722C15.2965 38.0335 14.8743 38.1657 14.6143 38.5111C14.4915 38.673 14.4332 38.9103 14.3408 39.0241C14.1734 39.2279 13.9244 39.2813 13.7992 39.4694C13.7286 39.5754 13.6599 39.8027 13.5908 39.946C13.3855 40.381 13.1108 40.6893 13.2835 41.2116C13.3559 41.4266 13.6915 41.5706 13.6924 41.8236C13.6933 42.1212 13.0592 42.3878 13.0101 42.7142C12.9738 42.957 13.2065 43.3904 13.2835 43.7064C13.3399 43.9452 13.7912 44.0944 13.932 44.2533C14.172 44.5227 14.3638 44.9044 14.583 45.2428C15.0165 45.9085 15.3562 46.7203 15.7783 47.3652C16.0014 47.703 16.3146 48.0068 16.4632 48.3574C16.5391 48.5344 16.5286 48.7453 16.5986 48.9043C16.843 49.4558 17.922 50.0316 18.4788 50.3053C18.7395 50.4319 19.0287 50.4776 19.2679 50.61C19.6302 50.8121 20.348 51.3548 20.5309 51.6725C20.6938 51.9581 20.7954 52.6533 20.8747 53.1074C20.9807 53.7076 20.8759 54.1684 20.9085 54.8184C20.9304 55.1698 21.0428 55.5233 21.0465 55.8756C21.0479 55.999 20.9817 56.0909 20.9762 56.2168C20.976 56.2376 20.9811 56.2608 20.9814 56.2819C24.3398 57.8017 28.0612 58.6673 31.9997 58.6673C32.7112 58.6673 33.4144 58.6303 34.1117 58.5762C34.142 58.5236 34.1703 58.4692 34.208 58.4199C34.3684 58.2093 34.511 58.0247 34.6169 57.8392C34.7178 57.2149 34.3679 56.7789 34.5153 56.2324C34.6785 55.6186 35.5272 55.2437 36.1221 54.9668C36.3267 54.8717 36.5361 54.7174 36.7028 54.6595C37.1145 54.5162 37.6285 54.5937 38.0049 54.4564C38.6455 54.222 38.7124 53.5348 39.0283 52.9512C39.1772 52.6748 39.3741 52.398 39.4033 52.2012C39.4287 52.0242 39.3385 51.8577 39.3669 51.6491C39.3979 51.4425 39.583 51.264 39.6403 51.0371C39.7155 50.741 39.7471 50.3071 39.7471 49.9772C39.7471 49.7065 39.6204 49.4689 39.609 49.2246C39.5646 48.3378 39.9294 48.2385 40.2575 47.7559C40.4222 47.5161 40.4837 47.2428 40.5986 47.071C41.1495 46.2491 42.1053 45.8524 42.0361 44.61C42.0132 44.1989 41.7552 43.2699 41.4528 43.1387C41.2797 43.0633 40.8828 43.1344 40.6325 43.0371C39.8244 42.7356 39.35 41.7339 38.5127 41.6699C38.3338 41.6481 38.1697 41.7433 37.9684 41.7402C37.637 41.7184 37.1374 41.5081 36.7705 41.4668C36.5374 41.4415 36.2256 41.5363 36.0856 41.4668C35.8721 41.3631 35.8504 40.9695 35.6768 40.8522C35.5391 40.7574 35.271 40.7248 35.0622 40.6439C34.7255 40.5145 34.4585 40.3637 34.07 40.3366C33.95 40.3326 33.8007 40.3942 33.6611 40.373C33.4461 40.3368 33.2762 40.0823 33.0778 39.9616C32.8294 39.8104 32.5998 39.7372 32.4971 39.5215C32.7216 38.785 32.1012 38.5798 31.9502 38.1543C31.8778 37.9549 31.9113 37.715 31.8486 37.5371C31.7594 37.2823 31.5076 37.1351 31.2314 36.9225C30.7367 36.5418 30.2979 36.1842 29.5908 36.097C29.28 36.0575 28.9716 36.1901 28.596 36.1673C28.198 36.142 27.6984 35.794 27.4007 35.4538C27.1113 35.1216 26.9705 34.8235 26.7184 34.6647C26.4796 34.5112 26.1628 34.5156 25.9997 34.36C25.927 34.2924 25.9395 34.176 25.8617 34.0163C25.7415 33.7676 25.54 33.6294 25.6898 33.3314C25.4174 33.1914 25.4098 33.5914 25.1117 33.5397C24.8459 33.1625 24.6214 32.9838 24.0179 33.0944C23.7415 33.1452 23.5873 33.4946 23.2653 33.5033C23.0012 33.5251 22.7938 33.2091 22.445 33.1595C22.1817 33.1232 21.8824 33.231 21.695 33.196C21.4032 33.1376 21.3131 32.8947 21.0465 32.7194C20.8511 32.5909 20.4713 32.3722 20.3617 32.3756C20.018 32.3975 19.7731 33.106 19.2992 32.8548C19.0688 32.563 19.6743 32.4091 19.4007 32.1361C19.1935 31.9288 19.0195 32.2299 18.8538 32.3444C18.664 32.4756 18.4855 32.6053 18.2757 32.6829C17.8061 32.8588 17.5125 32.7667 17.1455 32.9564C16.8057 33.1324 16.7912 33.4269 16.5986 33.7767C16.4413 34.0632 16.0826 34.4808 15.846 34.498C15.5595 34.5199 15.2856 34.0974 15.0257 33.985C14.2427 33.6459 13.8634 34.2862 13.2132 34.2949C12.6098 34.3168 11.748 33.3206 11.7783 32.7533C11.7823 32.4071 11.9774 31.882 12.0179 31.4538C12.0542 31.1132 12.2874 30.9079 12.2913 30.597C12.2953 30.1817 11.7405 29.8624 11.471 29.8131C10.8322 29.6957 9.94532 30.0701 9.21322 29.7767C9.07322 29.545 9.37692 29.3849 9.4554 29.1595C9.4998 29.0312 9.47411 28.8603 9.52051 28.7194C9.60171 28.5017 9.82986 28.3329 9.93197 28.1022C10.0081 27.9262 10.0272 27.6722 10.1038 27.4538C10.193 27.2051 10.3581 27.0449 10.3773 26.8704C10.4026 26.6401 10.3156 26.3739 10.1351 26.222ZM19.2757 33.459C19.5075 33.4808 19.5365 33.9595 19.2992 33.998C19.0435 34.0376 18.9135 33.5971 19.1611 33.4824C19.2027 33.4606 19.2433 33.4592 19.2757 33.4616V33.459Z" fill="url(#paint1_linear_69_169)"/>
<path d="M5.34863 31.334C5.3432 31.5565 5.33301 31.7768 5.33301 32.0007C5.33301 46.774 17.2264 58.6673 31.9997 58.6673C46.773 58.6673 58.6663 46.774 58.6663 32.0007C58.6663 31.7768 58.6561 31.5565 58.6507 31.334C58.2985 45.7961 46.5496 57.334 31.9997 57.334C17.4498 57.334 5.70088 45.7961 5.34863 31.334Z" fill="#0C69CF"/>
<defs>
<linearGradient id="paint0_linear_69_169" x1="33.333" y1="58.6673" x2="33.333" y2="5.33398" gradientUnits="userSpaceOnUse">
<stop stop-color="#197CF1"/>
<stop offset="1" stop-color="#20BCFA"/>
</linearGradient>
<linearGradient id="paint1_linear_69_169" x1="31.9489" y1="59.994" x2="31.9489" y2="3.98752" gradientUnits="userSpaceOnUse">
<stop stop-color="#7CBAF8"/>
<stop offset="1" stop-color="#F4FCFF"/>
</linearGradient>
</defs>
</svg>
