<svg width="128" height="128" viewBox="0 0 128 128" fill="none" xmlns="http://www.w3.org/2000/svg">
<path d="M27.0742 10.1895C19.4625 10.1895 13.5644 16.1407 13.334 23.5243V98.9544C13.334 106.181 19.3301 112 26.7775 112H100.929C108.541 112 114.669 106.051 114.669 98.6648V23.2347C114.669 16.0076 108.673 10.1895 101.226 10.1895H27.0742Z" fill="url(#paint0_linear_69_210)"/>
<path opacity="0.2" fill-rule="evenodd" clip-rule="evenodd" d="M56.9795 24.9046L57.1649 43.5019L54.5165 40.8485L40.6968 51.4334L40.0082 61.0033L26.6865 66.8424L40.0082 79.6684V90.5011L53.33 103.677L94.9345 99.4945C96.2243 99.2727 97.44 98.7196 98.5444 97.9212L83.8719 75.2591L79.9972 34.3415L70.2165 23.6758L56.9795 24.9046Z" fill="url(#paint1_linear_69_210)"/>
<path opacity="0.2" fill-rule="evenodd" clip-rule="evenodd" d="M101.354 27.2402L83.3184 49.2292L100.557 100.215C103.372 97.7652 106.678 90.7338 106.678 86.3767L114.676 39.6697L101.354 27.2402Z" fill="url(#paint2_linear_69_210)"/>
<path d="M70.4394 24.043L57.069 25.2751V76.1383L70.2931 74.3624V52.6221L87.9206 76.6871L101.73 72.5866L83.6589 49.4797L101.876 27.6043L87.7743 24.5963L70.2931 46.4711L70.4394 24.043ZM40.324 36.4846C40.173 36.4846 39.9936 36.5638 39.8851 36.6243L34.7455 41.5477C34.5284 41.7616 34.4387 42.1196 34.5992 42.3706L40.6213 51.6692C39.5406 53.3616 38.743 55.2121 38.1247 57.1369L26.9583 59.3265C26.6468 59.4056 26.373 59.5778 26.373 59.8753V66.7097C26.373 66.9979 26.6609 67.3186 26.9583 67.393L37.8274 69.8527C38.4079 72.0798 39.2857 74.2 40.4703 76.1434L34.1509 85.0328C33.9762 85.2839 34.0659 85.6419 34.2972 85.8557L39.4415 90.6396C39.6586 90.8348 40.055 90.9372 40.324 90.7792L50.169 85.1724C52.104 86.2139 54.1334 87.0783 56.3374 87.6316L58.6878 97.8882C58.7538 98.1858 58.9568 98.4365 59.273 98.4365H66.6166C66.9281 98.4365 67.2773 98.1718 67.3528 97.8882L69.9958 87.6316C72.2706 87.0597 74.4794 86.1207 76.4616 85.0328L86.1555 91.0488C86.4245 91.2068 86.8115 91.1277 87.0381 90.9091L92.1776 86.1253C92.3995 85.9115 92.4844 85.5533 92.324 85.3069L88.7985 79.8392L87.6233 80.2484C87.4534 80.3275 87.2788 80.2483 87.1844 80.1088C87.1844 80.1088 84.9615 76.9755 82.0448 73.0003C78.5523 79.3606 71.44 83.6656 63.2421 83.6656C51.5896 83.6656 42.0891 74.9577 42.0891 64.1109C42.0891 56.1327 47.2382 49.2747 54.577 46.2015V41.143C53.2414 41.5801 51.986 42.0268 50.7589 42.6499H50.6126L40.7677 36.6333C40.6355 36.5543 40.475 36.4843 40.3287 36.4983" fill="white"/>
<defs>
<linearGradient id="paint0_linear_69_210" x1="10.6718" y1="10.7239" x2="108.264" y2="112.793" gradientUnits="userSpaceOnUse">
<stop stop-color="#21C9FB"/>
<stop offset="1" stop-color="#1A86F2"/>
</linearGradient>
<linearGradient id="paint1_linear_69_210" x1="46.436" y1="34.1537" x2="93.1169" y2="82.2546" gradientUnits="userSpaceOnUse">
<stop/>
<stop offset="1" stop-opacity="0"/>
</linearGradient>
<linearGradient id="paint2_linear_69_210" x1="86.47" y1="33.9194" x2="107.909" y2="56.0106" gradientUnits="userSpaceOnUse">
<stop/>
<stop offset="1" stop-opacity="0"/>
</linearGradient>
</defs>
</svg>
