<svg width="64" height="64" viewBox="0 0 64 64" fill="none" xmlns="http://www.w3.org/2000/svg">
<path d="M55 6H9V57.9999H55V6Z" fill="url(#paint0_linear_69_122)"/>
<path opacity="0.2" fill-rule="evenodd" clip-rule="evenodd" d="M11 52L17 58H54H55V11V10L53 8V52H11Z" fill="url(#paint1_linear_69_122)"/>
<path d="M55 57H9V58H55V57Z" fill="#737B81"/>
<path d="M47 54H17V57.9999H47V54Z" fill="#292C2E"/>
<path d="M39.8002 22.8996C39.8002 18.5918 36.308 15.0996 32.0002 15.0996C27.6924 15.0996 24.2002 18.5918 24.2002 22.8996C24.2002 27.2074 27.6924 30.6996 32.0002 30.6996C36.308 30.6996 39.8002 27.2074 39.8002 22.8996Z" fill="#ABB9BE"/>
<path fill-rule="evenodd" clip-rule="evenodd" d="M11 8V52H32H53V8H32H11Z" fill="url(#paint2_linear_69_122)"/>
<path d="M26 41H14V46H26V41Z" fill="#FDBC4A"/>
<path d="M25 42H15V43H25V42Z" fill="white"/>
<path d="M23 44H15V45H23V44Z" fill="white"/>
<path d="M47 57H17V58H47V57Z" fill="#202324"/>
<path d="M20.9999 55H19.0001L19 55.0001V55.9999L19.0001 56H20.9999L21 55.9999V55.0001L20.9999 55Z" fill="#F9CF8D"/>
<path d="M20.9999 56H19.0001L19 56.0001V56.9999L19.0001 57H20.9999L21 56.9999V56.0001L20.9999 56Z" fill="#F6B44D"/>
<path d="M44.9999 55H43.0001L43 55.0001V55.9999L43.0001 56H44.9999L45 55.9999V55.0001L44.9999 55Z" fill="#F9CF8D"/>
<path d="M44.9999 56H43.0001L43 56.0001V56.9999L43.0001 57H44.9999L45 56.9999V56.0001L44.9999 56Z" fill="#F6B44D"/>
<path d="M23.9999 55H22.0001L22 55.0001V55.9999L22.0001 56H23.9999L24 55.9999V55.0001L23.9999 55Z" fill="#F9CF8D"/>
<path d="M23.9999 56H22.0001L22 56.0001V56.9999L22.0001 57H23.9999L24 56.9999V56.0001L23.9999 56Z" fill="#F6B44D"/>
<path d="M26.9999 55H25.0001L25 55.0001V55.9999L25.0001 56H26.9999L27 55.9999V55.0001L26.9999 55Z" fill="#F9CF8D"/>
<path d="M26.9999 56H25.0001L25 56.0001V56.9999L25.0001 57H26.9999L27 56.9999V56.0001L26.9999 56Z" fill="#F6B44D"/>
<path d="M32.9999 55H31.0001L31 55.0001V55.9999L31.0001 56H32.9999L33 55.9999V55.0001L32.9999 55Z" fill="#F9CF8D"/>
<path d="M32.9999 56H31.0001L31 56.0001V56.9999L31.0001 57H32.9999L33 56.9999V56.0001L32.9999 56Z" fill="#F6B44D"/>
<path d="M41.9999 55H40.0001L40 55.0001V55.9999L40.0001 56H41.9999L42 55.9999V55.0001L41.9999 55Z" fill="#F9CF8D"/>
<path d="M41.9999 56H40.0001L40 56.0001V56.9999L40.0001 57H41.9999L42 56.9999V56.0001L41.9999 56Z" fill="#F6B44D"/>
<path d="M38.9999 55H37.0001L37 55.0001V55.9999L37.0001 56H38.9999L39 55.9999V55.0001L38.9999 55Z" fill="#F9CF8D"/>
<path d="M38.9999 56H37.0001L37 56.0001V56.9999L37.0001 57H38.9999L39 56.9999V56.0001L38.9999 56Z" fill="#F6B44D"/>
<path d="M35.9999 55H34.0001L34 55.0001V55.9999L34.0001 56H35.9999L36 55.9999V55.0001L35.9999 55Z" fill="#F9CF8D"/>
<path d="M35.9999 56H34.0001L34 56.0001V56.9999L34.0001 57H35.9999L36 56.9999V56.0001L35.9999 56Z" fill="#F6B44D"/>
<path d="M29.9999 55H28.0001L28 55.0001V55.9999L28.0001 56H29.9999L30 55.9999V55.0001L29.9999 55Z" fill="#F9CF8D"/>
<path d="M29.9999 56H28.0001L28 56.0001V56.9999L28.0001 57H29.9999L30 56.9999V56.0001L29.9999 56Z" fill="#F6B44D"/>
<path d="M51 41H38V42H51V41Z" fill="#4D4D4D"/>
<path d="M51 43H38V44H51V43Z" fill="#4D4D4D"/>
<path d="M51 45H38V46H51V45Z" fill="#4D4D4D"/>
<path opacity="0.2" d="M18.707 14.293L17.293 15.707L25.293 23.707L25 24L55 54V44L30 19L26.707 22.293L18.707 14.293ZM16.5605 20.4395L14.4395 22.5605L19.9395 28.0605L18.5859 29.4141L47.1699 58H54.123L16.5605 20.4395Z" fill="url(#paint3_linear_69_122)"/>
<path d="M18 14C17.446 14 17 14.446 17 15C17 15.554 17.446 16 18 16C18.554 16 19 15.554 19 15C19 14.446 18.554 14 18 14ZM25 14L23 16L26 19L23 22L25 24L28 21L30 19L25 14ZM15.5 20C14.669 20 14 20.669 14 21.5C14 22.331 14.669 23 15.5 23C16.331 23 17 22.331 17 21.5C17 20.669 16.331 20 15.5 20ZM20 26C18.892 26 18 26.892 18 28C18 29.108 18.892 30 20 30C21.108 30 22 29.108 22 28C22 26.892 21.108 26 20 26Z" fill="url(#paint4_linear_69_122)"/>
<defs>
<linearGradient id="paint0_linear_69_122" x1="25.1251" y1="44" x2="25.1251" y2="3.99998" gradientUnits="userSpaceOnUse">
<stop stop-color="#C6CDD1"/>
<stop offset="1" stop-color="#E0E5E7"/>
</linearGradient>
<linearGradient id="paint1_linear_69_122" x1="23" y1="21" x2="43" y2="41" gradientUnits="userSpaceOnUse">
<stop stop-color="#020303"/>
<stop offset="1" stop-color="#424649" stop-opacity="0"/>
</linearGradient>
<linearGradient id="paint2_linear_69_122" x1="32" y1="52" x2="32" y2="8.00003" gradientUnits="userSpaceOnUse">
<stop stop-color="#EEF1F2"/>
<stop offset="1" stop-color="#F9FAFB"/>
</linearGradient>
<linearGradient id="paint3_linear_69_122" x1="23" y1="21" x2="43" y2="41" gradientUnits="userSpaceOnUse">
<stop stop-color="#020303"/>
<stop offset="1" stop-color="#424649" stop-opacity="0"/>
</linearGradient>
<linearGradient id="paint4_linear_69_122" x1="22" y1="1061.36" x2="22" y2="1044.36" gradientUnits="userSpaceOnUse">
<stop stop-color="#2A2C2F"/>
<stop offset="1" stop-color="#424649"/>
</linearGradient>
</defs>
</svg>
